<svg width="146" height="64" viewBox="0 0 146 64" fill="none" xmlns="http://www.w3.org/2000/svg">
    <path fill-rule="evenodd" clip-rule="evenodd" d="M94.3245 14.0191V45.7143L94.3231 45.714L94.3208 45.9659C94.1521 54.6218 88.2777 61.8629 80.3448 64.0001L80.3456 54.103C83.252 52.4022 85.2074 49.2236 85.2074 45.5831L85.2073 14.0191H94.3245ZM37.7144 0V32.9376C37.7144 43.3805 29.2718 51.8462 18.8572 51.8462C8.44266 51.8462 0 43.3805 0 32.9376C0 22.4947 8.44266 14.029 18.8572 14.029C22.4183 14.029 25.7488 15.0188 28.59 16.7389L28.59 0H37.7144ZM141.218 43.2308C143.572 43.2308 145.481 45.1422 145.481 47.5001C145.481 49.8579 143.572 51.7693 141.218 51.7693C138.863 51.7693 136.955 49.8579 136.955 47.5001C136.955 45.1422 138.863 43.2308 141.218 43.2308ZM118.098 14C128.512 14 136.955 22.455 136.955 32.8847C136.955 43.3143 128.512 51.7693 118.098 51.7693C107.683 51.7693 99.2404 43.3143 99.2404 32.8847C99.2404 22.455 107.683 14 118.098 14ZM61.4876 14C71.9021 14 80.3448 22.455 80.3448 32.8847C80.3448 43.3143 71.9021 51.7693 61.4876 51.7693C51.073 51.7693 42.6304 43.3143 42.6304 32.8847C42.6304 22.455 51.073 14 61.4876 14ZM141.218 44.2981C139.452 44.2981 138.021 45.7317 138.021 47.5001C138.021 49.2684 139.452 50.702 141.218 50.702C142.984 50.702 144.415 49.2684 144.415 47.5001C144.415 45.7317 142.984 44.2981 141.218 44.2981ZM141.37 45.4874L141.556 45.4938C141.917 45.5193 142.207 45.6215 142.425 45.8003C142.679 46.0089 142.806 46.3053 142.806 46.6895C142.806 46.9566 142.742 47.1808 142.614 47.3619C142.486 47.543 142.307 47.6739 142.077 47.7544L142.871 49.1541L142.884 49.1856L142.888 49.2145C142.888 49.2474 142.876 49.2748 142.852 49.2968C142.828 49.3187 142.802 49.3297 142.773 49.3297H142.268L142.214 49.3251C142.181 49.3191 142.153 49.3069 142.131 49.2886C142.098 49.2611 142.069 49.2254 142.044 49.1815L141.342 47.8806H140.591V49.198L140.587 49.2328C140.581 49.2547 140.57 49.2742 140.553 49.2913C140.527 49.3169 140.494 49.3297 140.454 49.3297H139.95L139.915 49.3255C139.893 49.3198 139.874 49.3084 139.857 49.2913C139.831 49.2657 139.818 49.2346 139.818 49.198V45.6246L139.822 45.5868C139.828 45.5632 139.838 45.5429 139.854 45.5258C139.878 45.5002 139.91 45.4874 139.95 45.4874H141.37ZM141.353 46.1022H140.591V47.2549H141.353C141.572 47.2549 141.737 47.2064 141.846 47.1094C141.956 47.0124 142.011 46.8706 142.011 46.684C142.011 46.4974 141.956 46.3538 141.846 46.2531C141.737 46.1525 141.572 46.1022 141.353 46.1022ZM18.8572 23.1783C13.482 23.1783 9.12446 27.5477 9.12446 32.9376C9.12446 38.3275 13.482 42.6969 18.8572 42.6969C24.2325 42.6969 28.59 38.3275 28.59 32.9376C28.59 27.5477 24.2325 23.1783 18.8572 23.1783ZM118.098 23.1377C112.722 23.1377 108.365 27.5016 108.365 32.8847C108.365 38.2677 112.722 42.6316 118.098 42.6316C123.473 42.6316 127.83 38.2677 127.83 32.8847C127.83 27.5016 123.473 23.1377 118.098 23.1377ZM61.4876 23.1377C56.1123 23.1377 51.7548 27.5016 51.7548 32.8847C51.7548 38.2677 56.1123 42.6316 61.4876 42.6316C66.8628 42.6316 71.2203 38.2677 71.2203 32.8847C71.2203 27.5016 66.8628 23.1377 61.4876 23.1377ZM89.7659 0C92.2835 0 94.3245 2.0467 94.3245 4.57143C94.3245 7.09617 92.2835 9.14287 89.7659 9.14287C87.2482 9.14287 85.2073 7.09617 85.2073 4.57143C85.2073 2.0467 87.2482 0 89.7659 0Z" fill="#262626"/>
</svg>
